<svg width="36" height="40" viewBox="0 0 36 40" fill="none" xmlns="http://www.w3.org/2000/svg">
<path d="M10.2652 33.6706C9.70075 33.1061 9.35161 32.3263 9.35161 31.4649C9.35161 29.7422 10.7482 28.3457 12.4709 28.3457C13.3322 28.3457 14.1121 28.6948 14.6765 29.2593M17.848 26.0877C17.0954 25.3351 16.6299 24.2954 16.6299 23.1469C16.6299 20.8499 18.492 18.9879 20.7889 18.9879C21.9374 18.9879 22.9772 19.4534 23.7298 20.206M25.8616 17.0345C25.2971 16.47 24.9479 15.6902 24.9479 14.8288C24.9479 13.1061 26.3445 11.7096 28.0672 11.7096C28.9286 11.7096 29.7084 12.0587 30.2729 12.6232M34.3057 14.1992C34.3057 16.5413 33.1352 18.7284 31.1865 20.0276C29.2377 21.3268 28.0672 23.5139 28.0672 25.856V26.2661C28.0672 28.7104 26.4037 30.841 24.0324 31.4339L23.3861 31.5954C21.0459 32.1805 19.0077 33.6168 17.6697 35.6239C16.3705 37.5727 14.1834 38.7432 11.8413 38.7432H3.11308C4.44457 37.4117 5.19259 35.6058 5.19259 33.7228V32.0945C5.19259 29.7524 6.36311 27.5653 8.31186 26.2661C10.319 24.9281 11.7553 22.8899 12.3404 20.5497L12.7541 18.8947C13.1987 17.1162 14.7967 15.8686 16.6299 15.8686C18.5416 15.8686 20.2892 14.7885 21.1441 13.0786L22.0482 11.2705C23.1881 8.99066 25.5183 7.55054 28.0672 7.55054H29.2854C31.1684 7.55054 32.9743 6.80252 34.3057 5.47103V14.1992ZM4.15284 17.9481C5.87556 17.9481 7.2721 16.5516 7.2721 14.8288C7.2721 13.1061 5.87556 11.7096 4.15284 11.7096C2.43011 11.7096 1.03357 13.1061 1.03357 14.8288C1.03357 16.5516 2.43011 17.9481 4.15284 17.9481ZM4.15284 7.55054C5.87556 7.55054 7.2721 6.154 7.2721 4.43128C7.2721 2.70855 5.87556 1.31201 4.15284 1.31201C2.43011 1.31201 1.03357 2.70855 1.03357 4.43128C1.03357 6.154 2.43011 7.55054 4.15284 7.55054ZM14.5504 9.63005C16.2731 9.63005 17.6697 8.23351 17.6697 6.51079C17.6697 4.78807 16.2731 3.39152 14.5504 3.39152C12.8277 3.39152 11.4311 4.78807 11.4311 6.51079C11.4311 8.23351 12.8277 9.63005 14.5504 9.63005Z" stroke="black" stroke-width="1.94954" stroke-linecap="round"/>
</svg>
