<svg width="50" height="53" viewBox="0 0 50 53" fill="none" xmlns="http://www.w3.org/2000/svg">
<g filter="url(#filter0_d_168_2358)">
<path d="M17.5495 38.5968C16.985 38.0324 16.6359 37.2525 16.6359 36.3912C16.6359 34.6685 18.0325 33.2719 19.7552 33.2719C20.6165 33.2719 21.3964 33.6211 21.9608 34.1855M25.1324 31.014C24.3797 30.2614 23.9142 29.2216 23.9142 28.0731C23.9142 25.7762 25.7763 23.9141 28.0732 23.9141C29.2217 23.9141 30.2615 24.3796 31.0141 25.1323M33.1459 21.9608C32.5814 21.3963 32.2322 20.6165 32.2322 19.7551C32.2322 18.0324 33.6288 16.6358 35.3515 16.6358C36.2129 16.6358 36.9927 16.985 37.5572 17.5494M41.59 19.1255C41.59 21.4676 40.4195 23.6547 38.4708 24.9539C36.522 26.253 35.3515 28.4402 35.3515 30.7823V31.1924C35.3515 33.6367 33.688 35.7673 31.3167 36.3601L30.6704 36.5217C28.3302 37.1068 26.292 38.5431 24.954 40.5502C23.6548 42.4989 21.4677 43.6695 19.1256 43.6695H10.3974C11.7289 42.338 12.4769 40.5321 12.4769 38.6491V37.0208C12.4769 34.6787 13.6474 32.4916 15.5962 31.1924C17.6033 29.8543 19.0396 27.8162 19.6247 25.4759L20.0384 23.821C20.483 22.0425 22.081 20.7949 23.9142 20.7949C25.8259 20.7949 27.5735 19.7148 28.4284 18.0049L29.3325 16.1968C30.4724 13.9169 32.8026 12.4768 35.3515 12.4768H36.5697C38.4527 12.4768 40.2586 11.7288 41.59 10.3973V19.1255ZM11.4371 22.8744C13.1599 22.8744 14.5564 21.4778 14.5564 19.7551C14.5564 18.0324 13.1599 16.6358 11.4371 16.6358C9.71441 16.6358 8.31787 18.0324 8.31787 19.7551C8.31787 21.4778 9.71441 22.8744 11.4371 22.8744ZM11.4371 12.4768C13.1599 12.4768 14.5564 11.0803 14.5564 9.35755C14.5564 7.63482 13.1599 6.23828 11.4371 6.23828C9.71441 6.23828 8.31787 7.63482 8.31787 9.35755C8.31787 11.0803 9.71441 12.4768 11.4371 12.4768ZM21.8347 14.5563C23.5574 14.5563 24.954 13.1598 24.954 11.4371C24.954 9.71433 23.5574 8.31779 21.8347 8.31779C20.112 8.31779 18.7154 9.71433 18.7154 11.4371C18.7154 13.1598 20.112 14.5563 21.8347 14.5563Z" stroke="#838685" stroke-width="1.94954" stroke-linecap="round"/>
</g>
<defs>
<filter id="filter0_d_168_2358" x="-4" y="0" width="57.9082" height="57.9082" filterUnits="userSpaceOnUse" color-interpolation-filters="sRGB">
<feFlood flood-opacity="0" result="BackgroundImageFix"/>
<feColorMatrix in="SourceAlpha" type="matrix" values="0 0 0 0 0 0 0 0 0 0 0 0 0 0 0 0 0 0 127 0" result="hardAlpha"/>
<feOffset dy="4"/>
<feGaussianBlur stdDeviation="2"/>
<feComposite in2="hardAlpha" operator="out"/>
<feColorMatrix type="matrix" values="0 0 0 0 0 0 0 0 0 0 0 0 0 0 0 0 0 0 0.25 0"/>
<feBlend mode="normal" in2="BackgroundImageFix" result="effect1_dropShadow_168_2358"/>
<feBlend mode="normal" in="SourceGraphic" in2="effect1_dropShadow_168_2358" result="shape"/>
</filter>
</defs>
</svg>
